<?xml version="1.0" encoding="UTF-8"?>
<svg width="1200pt" height="1200pt" version="1.1" viewBox="0 0 1200 1200" xmlns="http://www.w3.org/2000/svg">
 <g>
  <path d="m1200 600c0 214.36-114.36 412.44-300 519.62-185.64 107.18-414.36 107.18-600 0-185.64-107.18-300-305.26-300-519.62s114.36-412.44 300-519.62c185.64-107.18 414.36-107.18 600 0 185.64 107.18 300 305.26 300 519.62" fill="#eaeaea"/>
  <path d="m589.58 499.57 11.168-67.152 67.297-11.312-67.297-11.312-11.168-67.152-11.316 67.152-67.301 11.312 67.301 11.312z"/>
  <path d="m888.71 457.73 7.4453-43.922 43.922-7.4453-43.922-7.2891-7.4453-43.926-7.3086 43.926-43.914 7.2891 43.914 7.4453z"/>
  <path d="m311.14 491.38 7.4531-43.922 43.922-7.4453-43.922-7.3008-7.4531-43.922-7.293 43.922-43.922 7.3008 43.922 7.4453z"/>
  <path d="m674.6 397.58 7.293-44.07 43.922-7.3008-43.922-7.293-7.293-43.922-7.3086 43.922-43.914 7.293 43.914 7.3008z"/>
  <path d="m917.74 500.75c-3.5273-3.5156-9.0156-4.293-14.148-2.5078-2.1914-3.875-5.6016-6.2969-9.8242-6.2578-2.0781 0.015625-4.1797 0.69531-6.1133 1.7852-2.1094-4.6328-5.8945-7.6406-10.566-7.5938-2.6289 0.03125-5.2539 1.0117-7.5938 2.6836-2.0859-5.707-6.1055-9.4375-11.168-9.3867-5.2812 0.058594-10.461-0.98438-13.844 5.2148-2.0039-1.8047-4.3242-2.8555-7.0273-2.832-1.8125 0.015626-3.6211 0.72656-5.3594 1.6406-1.5039-4.5039-4.2461-4.9883-7.7148-4.9141-1.1484 0.023437-2.418 0.13672-3.7188 0.15234-2.6914 0.023437-5.3438 1.1016-7.7461 2.9766-2.0195-1.9336-4.3516-3.0078-7.1406-2.9766-4.457 0.054687-8.7656 2.9609-12.062 7.5938-3.8555-5.5547-9.418-8.3359-14.594-6.5508-3.3711 1.1641-6.0898 4.1484-7.8984 8.0391-3.6953-4.2539-8.4023-6.1758-12.953-4.6172-2.2305 0.76953-4.0742 2.2461-5.6523 4.3164-3.7773-4.6836-8.7969-6.8477-13.551-5.207-3.0312 1.043-5.5078 3.5352-7.3086 6.8477-2.2305-0.64062-4.5664-0.76172-6.8477-0.15234-1.7773 0.47656-3.3711 1.375-4.7695 2.5312-3.7773-3.7188-8.8867-5.457-13.695-4.1719-3.6055 0.96094-6.3867 3.5156-8.1836 6.8477-2.6758-1.3242-5.6211-1.8047-8.4883-1.043-3.7109 0.99609-6.6133 3.7773-8.1914 7.4453-6.1758-4.2773-13.875-4.4375-18.453 0.15234-4.5664 4.5664-4.5352 12.281-0.29297 18.461l87.691 126.86c-6.9844 2.1914-12.062 8.6602-12.062 16.383 0 9.3555 7.4453 16.938 16.754 17.215h28.98c0.31641 0 0.58203 0.16016 0.89062 0.19531h0.71875c1.1797 0 2.1523 0.50781 2.8281 1.3242 2.5703 1.707 4.375 4.6836 4.375 8.2461 0 5.3867-3.9375 9.7578-8.8125 9.7578l-22.246-0.011719 6.3008 163.37c0.62109 16.348 3.7344 29.633 20.094 29.633 16.355 0 19.625-13.285 20.246-29.633l7.0117-182.84h7.3086c9.5391 0 17.141-7.7305 17.141-17.27 0-7.8203-5.0938-14.418-12.203-16.535l89.031-125.07c5.3789-6.3867 5.832-15.129 0.85938-20.102z"/>
  <path d="m610.87 602.16h-10.562c0.14453-2.5781 0-5.2734 0-7.8906 0-87.609-36.938-127.28-89.188-141.15v-4.3164c0-3.6133-2.9414-6.5508-6.5508-6.5508h-93.66c-3.6133 0-6.5508 2.9414-6.5508 6.5508v5.5078c-50.648 15.297-85.895 56.461-87.246 139.96-0.046875 2.6133 0.007813 5.3125 0.15234 7.8906l-12.367 0.003906c-11.723 0-26.109 21.516-0.15234 32.012h143.53c2.0781 0 3.8398 1.0586 5.0117 2.5938 1.875 1.7969 3.1289 4.3438 3.1289 7.3125 0 5.3867-3.9453 9.7578-8.8203 9.7578h-140.23l21.945 212.32c2.3789 26.652 21.477 38.891 48.246 38.891h160.51c26.766 0 46.008-12.203 48.387-38.891l23.82-231.66c26.848-10.422 12.414-32.336 0.59375-32.336zm-226.3-0.27344c4.3164-13.695 15.59-23.035 28.574-23.035 0.73438 0 1.4648 0.039062 2.1914 0.097656l11.57 0.94531 3.9062-10.926c3.7031-10.367 12.43-17.07 22.242-17.07 9.4297 0 17.758 6.082 21.727 15.887l5.2461 12.938 13.316-4.2109c4.1406-1.3086 8.3203-1.9727 12.418-1.9727 17.516 0 32.773 11.344 37.777 27.34zm194.15 0.27344h-19.363c-5.1094-24.328-27.121-42.727-53.602-42.727-5.9102 0-11.645 0.98828-16.973 2.6758-6.0742-14.992-19.738-25.316-35.738-25.316-16.602 0-30.797 11.176-36.477 27.102-1.125-0.089844-2.2734-0.15234-3.4219-0.15234-21.605 0-39.621 16.422-44.367 38.414h-30.078c-0.16016-2.5859-0.17969-5.2656-0.15234-7.8906 0.81641-65.543 27.145-101.2 65.809-116.59v0.59766c0 3.6133 2.9414 6.5508 6.5508 6.5508h93.652c3.6211 0 6.5508-2.9414 6.5508-6.5508v-1.4883c40.152 14.797 67.895 50.344 67.895 117.48 0.007812 2.625-0.12109 5.3008-0.28516 7.8945z"/>
 </g>
</svg>
