<?xml version="1.0" encoding="UTF-8"?>
<svg width="1200pt" height="1200pt" version="1.1" viewBox="0 0 1200 1200" xmlns="http://www.w3.org/2000/svg">
 <g>
  <path d="m1200 600c0 214.36-114.36 412.44-300 519.62-185.64 107.18-414.36 107.18-600 0-185.64-107.18-300-305.26-300-519.62s114.36-412.44 300-519.62c185.64-107.18 414.36-107.18 600 0 185.64 107.18 300 305.26 300 519.62" fill="#eaeaea"/>
  <path d="m693.21 489.79c-1.5742-3.7773-2.5195-7.8711-2.5195-11.965v-89.109c0-12.594 7.5586-24.246 19.523-28.969 11.652-5.0391 25.191-2.2031 34.32 6.9258l22.043 22.043 94.465-94.465c12.281-12.281 32.434-12.281 44.715 0s12.281 32.434 0 44.715l-94.465 94.465 22.043 22.043c9.1328 9.1328 11.965 22.672 6.9258 34.32-4.7227 11.965-16.375 19.523-28.969 19.523h-89.109c-4.0938 0-8.1875-0.94531-11.965-2.5195-7.8711-3.1484-13.855-9.1328-17.004-17.004zm128.47 147.68c-36.211-35.895-94.777-35.895-130.68 0l-21.41 21.41c-11.652 11.652-30.23 11.652-41.562 0l-85.961-85.961c-5.668-5.3516-8.8164-12.91-8.8164-20.781s3.1484-15.113 8.8164-20.781l21.41-21.41c17.32-17.633 27.078-40.621 27.078-65.18 0-24.562-9.7617-47.863-27.078-65.496l-64.551-64.551c-34.953-34.637-95.723-34.637-130.68 0l-52.898 52.898c-21.727 22.043-31.172 53.531-25.191 84.387 21.098 105.17 79.664 209.71 164.37 294.41 84.387 84.703 189.24 142.96 294.41 164.37 6.2969 0.94531 12.594 1.5742 18.578 1.5742 24.562 0 48.176-9.4453 65.809-27.078l52.898-52.586c17.32-17.633 26.766-40.621 26.766-65.496s-9.4453-47.863-27.078-65.18l-64.234-64.551z"/>
 </g>
</svg>
