<?xml version="1.0" encoding="UTF-8"?>
<svg width="1200pt" height="1200pt" version="1.1" viewBox="0 0 1200 1200" xmlns="http://www.w3.org/2000/svg">
 <g>
  <path d="m1200 600c0 214.36-114.36 412.44-300 519.62-185.64 107.18-414.36 107.18-600 0-185.64-107.18-300-305.26-300-519.62s114.36-412.44 300-519.62c185.64-107.18 414.36-107.18 600 0 185.64 107.18 300 305.26 300 519.62" fill="#eaeaea"/>
  <path d="m320.06 923.84c13.848 0.039062 27.133-5.4648 36.898-15.281l346.61-346.61c-32.121-15.477-58.586-40.625-75.684-71.91l-344.72 344.72c-9.7852 9.7852-15.285 23.059-15.285 36.898s5.5 27.113 15.285 36.898c9.7891 9.7852 23.059 15.281 36.898 15.281zm-24.738-79.062c6.8438-6.8438 16.129-10.691 25.809-10.691 9.6797 0 18.961 3.8477 25.809 10.691 6.8438 6.8438 10.688 16.129 10.688 25.809 0 9.6797-3.8438 18.965-10.688 25.809-6.8477 6.8438-16.129 10.691-25.809 10.688-9.6797 0-18.965-3.8438-25.809-10.688-6.9023-6.8164-10.789-16.109-10.789-25.809s3.8867-18.996 10.789-25.809z"/>
  <path d="m321.13 892.32c5.7656 0.015626 11.301-2.2773 15.367-6.3672 4.7812-4.7812 7.0664-11.508 6.1836-18.211-0.88281-6.6992-4.832-12.609-10.684-15.988-5.8555-3.3789-12.945-3.8438-19.191-1.2578-6.2422 2.5898-10.926 7.9297-12.676 14.461-1.75 6.5273-0.36328 13.496 3.75 18.859 4.1172 5.3594 10.488 8.5039 17.246 8.5039z"/>
  <path d="m718.86 552.56c0.22266 0.074219 0.4375 0.16016 0.64844 0.25781 37.227 14.824 78.742 14.676 115.86-0.41797 37.117-15.09 66.961-43.957 83.277-80.551 16.32-36.594 17.852-78.086 4.2734-115.79l-64.379 64.379c-20.402 20.402-48.078 31.867-76.934 31.867s-56.527-11.465-76.93-31.867l-71.039-71.039c-15.754 38.23-15.617 81.164 0.375 119.29 15.996 38.133 46.531 68.312 84.844 83.863z"/>
  <path d="m845.59 287.99c-48.543-16.719-91.734-15.699-128.53 3.0742-15.465 7.8438-29.172 18.746-40.297 32.047l66.855 66.855z"/>
 </g>
</svg>
